<?xml version="1.0" encoding="utf-8"?>
<!-- Generator: Adobe Illustrator 22.1.0, SVG Export Plug-In . SVG Version: 6.00 Build 0)  -->
<svg version="1.1" id="Layer_1" xmlns="http://www.w3.org/2000/svg" xmlns:xlink="http://www.w3.org/1999/xlink" x="0px" y="0px"
	 viewBox="0 0 1000 333" style="enable-background:new 0 0 1000 333;" xml:space="preserve">
<style type="text/css">
	.st0{fill:#FFFFFF;}
</style>
<g>
	<path class="st0" d="M232.5,171.5l43.5,74.8h28.8c-6.4-10.2-67.1-114.1-72.2-124.4l-62.7,108.7l-23.3,40.6H60.2
		c4.8-8,37.1-64.3,68.1-118.3c18.2-31.6,38.4-67.1,61.1-105.8h28.8l-59.5,102.9l-55.3,96.2h28.8C171.5,176.9,196.1,136,232.5,72
		c2.2,3.8,114.8,198.8,115.4,199.2h-86.3l-43.5-74.8L232.5,171.5z"/>
	<path class="st0" d="M534,176.9l102.6,94.3H526.3l-83.8-76.7L572.4,72h-36.1l-93.7,90.5V72h-24.9v174.2h44.1l27.5,24.9h-96.5V47.1
		h74.8v55l58.8-55h109L479,194.2l56.9,52.1h36.8l-56.9-52.4L534,176.9z"/>
	<path class="st0" d="M926.2,146.5v124.7H788.5c-59.8-2.6-107.1-51.8-107.1-111.9c0-60.4,47.3-109.7,107.1-112.2h137.8v75.1H788.5
		c-18.9,1.6-33.2,17.9-33.2,36.8c0,19.5,14.4,34.8,33.2,37.4h87.6v24.9h-87.6c-32.3-2.6-57.9-29.1-57.9-62.3c0-32,24.6-59.5,56.6-62
		H901V72H788.5c-45.7,2.6-82.2,40.6-82.2,87.3c0,46.4,36.4,84.4,82.2,87H901v-74.8H783v-24.9H926.2z"/>
</g>
</svg>
