<svg xmlns="http://www.w3.org/2000/svg" viewBox="0 0 585.57 199.32"><defs><style>.a{fill:#fff;}</style></defs><title>logoSimpleWhite</title><path class="a" d="M872.79,511.11c6.6,0,9.91,2.89,12.8,2.89,1.23,0,2.47-.82,2.47-2.89V433.94l-26.41.42v51.17c-11.56,6.19-29.71,9.49-42.5,9.49-42.51,0-69.33-28.48-69.33-73.87,0-46.22,28.47-73.45,70.15-73.45,19.81,0,33.84,5.36,46.63,14.85L881.05,339c-18.16-12.79-38.8-17.74-60.25-17.74-62.73,0-99.46,41.26-99.46,101.51,0,59.42,35.91,97.8,96.57,97.8C848,520.6,862.47,511.11,872.79,511.11ZM669.35,328.71c-10.32,0-20.64-7.42-51.17-7.42-60.25,0-97.39,42.09-97.39,100.69,0,61.07,36.31,98.62,99,98.62,28.06,0,49.52-5.36,68.91-18.57l-9.49-22.69C663.16,489.24,648.3,495,624,495c-45,0-75.11-28.06-75.11-73.87s28.47-74.28,70.15-74.28a114.33,114.33,0,0,1,38,6.6v50.76h26v-75.1c0-2.07-1.24-2.89-2.48-2.89C677.6,326.24,674.71,328.71,669.35,328.71ZM454.76,482.22c-13.62,7.43-28.88,13.62-51.17,13.62-45,0-73-28.88-73-74.69,0-46.63,28.47-74.69,71-74.69,22.28,0,36.73,4.13,52.82,13.62ZM302.49,421.15c0,61.9,37.14,99.45,99,99.45,33.42,0,51.17-11.55,62.31-11.55,8.67,0,11.56,3.71,14.44,3.71,1.24,0,2.48-.82,2.48-2.89V345.22c-20.22-16.51-48.28-23.93-78.82-23.93C339.63,321.29,302.49,363.38,302.49,421.15Z" transform="translate(-302.49 -321.29)"/></svg>