<?xml version="1.0" standalone="no"?>
<!DOCTYPE svg PUBLIC "-//W3C//DTD SVG 20010904//EN"
 "http://www.w3.org/TR/2001/REC-SVG-20010904/DTD/svg10.dtd">
<svg version="1.0" xmlns="http://www.w3.org/2000/svg"
 width="827.000000pt" height="827.000000pt" viewBox="0 0 827.000000 827.000000"
 preserveAspectRatio="xMidYMid meet">
<metadata>
Created by potrace 1.11, written by Peter Selinger 2001-2013
</metadata>
<g transform="translate(0.000000,827.000000) scale(0.100000,-0.100000)"
fill="#000000" stroke="none">
<path d="M4030 8260 c-30 -4 -84 -11 -120 -15 -36 -4 -76 -9 -90 -11 -65 -9
-107 -16 -190 -30 -60 -10 -311 -67 -375 -85 -595 -168 -1074 -420 -1515 -798
-68 -58 -246 -234 -315 -311 -134 -148 -309 -387 -410 -557 -5 -10 -19 -33
-31 -53 -12 -19 -55 -100 -96 -180 -135 -262 -248 -564 -322 -860 -2 -8 -9
-33 -14 -55 -22 -82 -71 -344 -86 -455 -29 -210 -31 -262 -31 -750 0 -423 3
-526 19 -650 2 -14 6 -54 10 -90 4 -36 9 -72 11 -80 3 -8 7 -35 10 -60 8 -66
63 -331 90 -435 92 -350 243 -732 381 -960 19 -33 34 -60 33 -60 -10 0 185
-291 248 -370 181 -227 375 -422 583 -586 381 -300 852 -530 1368 -665 74 -20
145 -38 156 -40 12 -2 30 -6 41 -8 100 -21 184 -37 260 -50 87 -14 106 -17
238 -33 84 -11 1235 -10 1317 0 36 5 83 11 104 13 35 3 182 27 246 40 14 3 48
9 75 14 61 11 184 37 270 58 48 12 228 59 270 72 113 33 231 69 365 110 194
61 363 108 414 116 21 3 48 8 60 10 46 11 209 12 278 3 96 -13 219 -51 306
-94 119 -59 189 -65 230 -19 l22 25 0 3467 -1 3467 -42 32 c-23 17 -51 39 -62
48 -230 183 -629 401 -988 539 -191 74 -497 169 -652 202 -11 2 -29 6 -40 8
-118 27 -209 46 -241 50 -22 4 -51 9 -64 11 -28 6 -58 11 -110 19 -19 3 -46 8
-60 10 -14 2 -52 7 -85 11 -32 4 -68 9 -80 11 -11 2 -51 6 -90 9 -38 4 -83 9
-100 12 -46 8 -1133 12 -1195 3z m807 -1034 c90 -4 171 -9 180 -10 10 -2 59
-7 108 -11 50 -4 98 -9 109 -11 10 -2 37 -5 60 -8 41 -5 166 -26 262 -45 184
-36 472 -127 669 -211 123 -52 408 -196 480 -242 l39 -25 3 -804 c1 -442 4
-1587 5 -2544 l3 -1740 -80 -42 c-247 -132 -630 -295 -790 -338 -16 -5 -34
-10 -40 -11 -31 -11 -275 -75 -300 -79 -16 -3 -43 -8 -60 -12 -16 -4 -32 -7
-35 -8 -3 -1 -26 -4 -51 -8 -64 -11 -100 -17 -129 -22 -14 -2 -50 -7 -80 -10
-30 -4 -68 -8 -85 -10 -198 -26 -828 -26 -907 -1 -7 3 -46 7 -86 11 -40 3 -78
8 -85 10 -7 2 -28 6 -48 9 -92 13 -294 61 -411 97 -524 161 -941 428 -1277
818 -264 307 -469 713 -581 1148 -17 62 -32 127 -35 144 -3 16 -12 60 -20 97
-22 105 -49 328 -60 500 -5 75 -6 405 -1 497 4 69 17 223 21 245 2 8 6 44 10
80 4 36 9 74 11 85 2 11 7 36 10 55 32 193 118 515 169 635 7 17 29 71 50 120
89 216 250 483 402 668 83 100 239 259 317 322 27 22 63 52 80 66 114 95 369
248 551 329 241 108 606 207 870 235 33 4 71 8 85 10 14 2 79 7 145 10 66 4
121 8 122 8 3 4 248 -1 400 -7z"/>
</g>
</svg>
